<svg width="336" height="382" viewBox="0 0 336 382" fill="none" xmlns="http://www.w3.org/2000/svg">
<g clip-path="url(#clip0_4_238)">
<path d="M178.823 53.7646C174.605 52.7307 170.626 54.5599 168.557 58.9343L185.19 62.9905C185.429 58.298 183.041 54.7985 178.823 53.7646Z" fill="#DBA036"/>
<path d="M144.443 0C94.7835 0 49.5007 18.929 15.4391 49.9471C14.5637 56.0712 14.3249 62.9906 15.837 69.0352C19.4183 83.6694 43.8503 123.118 63.7461 143.876C70.3515 150.796 68.6006 162.249 60.1648 166.702C60.0057 166.782 59.9261 166.862 59.7669 166.941C51.4903 171.156 42.8953 175.531 37.5632 178.235C38.4386 179.666 44.089 188.177 51.8882 192.949C58.2548 196.766 59.4486 205.515 54.4348 210.923L44.3278 221.899L44.5665 221.978C49.819 224.444 56.7428 225.955 59.5282 233.113C60.324 235.181 60.8015 237.646 60.8015 240.748C60.8015 243.532 58.0957 245.282 55.549 247.35C54.3553 248.304 53.2411 249.258 52.4453 250.451C49.3415 255.064 48.0682 260.473 48.6253 265.881C48.864 267.869 49.2619 269.778 49.9782 271.687C52.684 278.924 55.4694 288.707 54.594 297.376C53.8778 304.534 42.3382 311.454 29.6049 316.862C19.7366 321.077 8.99287 320.839 -0.23877 316.941C31.4353 353.288 76.6385 377.626 127.572 382C130.596 370.945 131.71 355.833 127.572 335.552C124.07 326.883 123.274 317.339 122.797 309.386C122.081 295.388 117.703 280.913 111.416 268.346L101.707 254.189C100.513 251.167 101.866 247.668 104.891 246.316C126.696 236.772 136.803 265.722 136.803 265.722C136.803 265.722 139.828 273.278 149.218 283.696C158.53 294.115 151.049 291.57 162.509 294.036C175.799 296.899 189.487 274.948 189.487 274.948C173.65 263.574 163.782 250.292 163.782 250.292C136.963 245.361 120.091 240.987 121.126 229.216C122.16 217.445 127.81 218.956 152.879 219.433C164.498 219.672 171.183 221.183 175.003 222.774C170.069 219.115 165.692 215.695 165.692 215.695C165.692 215.695 147.308 213.548 147.627 199.47C147.865 185.313 160.917 185.87 160.917 185.87L179.858 192.63L192.591 199.788C186.782 185.552 179.46 172.986 196.65 168.293C196.65 168.293 202.937 168.134 209.144 178.951C216.944 192.551 235.089 214.502 237.237 226.591C239.386 238.68 240.739 265.483 247.265 281.151L247.106 281.072C248.299 299.285 245.912 300.717 233.576 317.498C227.926 325.213 224.822 335.711 217.739 344.381C216.227 350.743 213.999 360.049 211.691 370.388C284.112 343.108 335.602 273.198 335.602 191.278C336 85.6577 250.209 0 144.443 0ZM106.005 82.715C94.7835 86.8507 83.3235 81.6015 79.1056 70.0691C74.8081 58.4572 80.1402 47.0044 91.3614 42.9482C101.071 39.3691 109.188 42.9482 113.804 48.8336L107.994 54.0829C104.572 49.4699 99.6381 47.5611 93.6693 49.7085C86.5864 52.3331 83.4031 59.4912 86.2681 67.4445C89.1331 75.3183 96.2956 78.7383 103.458 76.1137C109.427 73.8867 111.814 69.3533 111.496 63.5474L119.295 63.786C119.534 71.3417 115.634 79.136 106.005 82.715ZM228.801 62.3544C230.234 60.2865 232.94 59.8888 234.929 61.2409C236.919 62.593 237.476 65.2971 235.964 67.4445C235.168 68.558 234.134 69.5124 232.383 70.5463L225.936 74.2844L222.435 71.8984L229.359 67.8422C227.846 66.331 227.449 64.3427 228.801 62.3544ZM147.149 75.2388L146.513 57.2642C146.353 52.8103 143.488 50.2653 139.191 50.4243C135.132 50.6629 132.188 53.6057 132.267 57.1051L132.983 75.7955L125.503 76.1137L123.831 33.0065L131.312 32.6883L131.869 47.6406C133.938 45.4137 137.122 43.7435 141.101 43.664C148.741 43.3458 153.675 48.1974 153.993 55.594L154.71 75.0002L147.149 75.2388ZM190.681 69.8305L167.284 64.0246C167.125 68.7966 169.99 72.3756 174.526 73.4891C178.664 74.523 181.211 73.4891 183.28 71.1031L188.135 76.1932C184.951 79.3746 180.176 81.4424 172.855 79.6132C163.225 77.2271 158.609 68.8761 160.837 59.8888C162.986 51.1401 171.581 45.7318 180.176 47.8792C189.726 50.1857 193.626 59.0935 191.716 66.8082C191.318 68.0808 191 69.1943 190.681 69.8305ZM198.639 88.7595L191.954 85.4191L202.937 63.3883L198.401 61.1614L201.266 55.4349L205.802 57.6619L205.961 57.2642C209.383 50.4243 215.352 48.1974 222.674 51.8559L224.663 52.8103L222.037 58.0595L220.366 57.1847C217.262 55.6735 214.636 56.7075 213.044 59.8888L212.487 60.9228L218.854 64.1041L215.989 69.8305L209.622 66.6492L198.639 88.7595ZM237.158 106.336C233.019 110.949 226.812 110.313 221.002 105.143C215.989 100.69 214.079 95.4403 216.307 90.3502L222.912 92.8157C221.639 95.5994 222.355 98.4626 225.141 100.928C227.369 102.917 229.597 103.235 231.109 101.644C235.168 97.031 220.525 87.8847 227.608 79.8518C231.348 75.6365 237.237 76.1137 242.729 80.9652C247.265 84.9419 248.856 89.7139 247.026 93.7701L240.421 91.3046C241.376 88.9981 240.739 86.9303 238.829 85.1805C236.76 83.3512 234.85 83.2717 233.576 84.6238C229.756 88.9186 244.718 97.8264 237.158 106.336ZM243.763 131.071L240.261 124.391L276.551 105.223L280.053 111.904L264.057 120.334L287.773 126.379L291.831 134.094L266.126 127.811L256.019 154.136L251.96 146.421L260.873 122.005L243.763 131.071ZM255.064 156.125L284.987 147.614L287.056 154.852L257.133 163.362L255.064 156.125ZM291.115 209.889C290.399 215.854 287.375 219.91 282.998 220.626L281.247 213.786C283.714 213.23 285.067 211.559 285.385 209.014C285.703 206.231 284.748 204.64 282.838 204.401C277.188 203.686 278.302 221.024 267.001 219.592C260.873 218.797 257.849 213.389 258.804 205.594C259.6 198.914 262.943 194.38 268.354 193.346L270.105 200.186C267.161 200.743 265.091 202.89 264.693 206.628C264.296 209.651 265.33 211.639 267.479 211.878C273.607 212.593 272.891 195.335 283.475 196.687C289.125 197.482 291.99 202.572 291.115 209.889ZM286.022 188.415L282.838 182.132C285.067 181.098 286.022 179.11 285.783 176.565C285.465 173.781 284.191 172.429 282.281 172.668C276.631 173.224 281.645 189.847 270.344 191.04C264.216 191.676 259.998 186.984 259.202 179.269C258.486 172.588 260.714 167.418 265.728 165.191L268.911 171.474C266.126 172.668 264.693 175.213 265.091 179.03C265.41 182.052 266.842 183.802 268.991 183.564C275.119 182.927 270.503 166.305 281.167 165.191C286.818 164.635 290.797 168.929 291.593 176.167C292.15 182.132 290.08 186.665 286.022 188.415ZM296.925 153.5C294.139 154.295 291.513 152.705 290.717 149.921C289.921 147.137 291.274 144.433 294.06 143.638C296.845 142.842 299.551 144.433 300.347 147.217C301.222 149.921 299.71 152.705 296.925 153.5Z" fill="#DBA036"/>
</g>
<defs>
<clipPath id="clip0_4_238">
<rect width="336" height="382" fill="white"/>
</clipPath>
</defs>
</svg>
