<svg width="91" height="103" viewBox="0 0 91 103" fill="none" xmlns="http://www.w3.org/2000/svg">
<path d="M39.1193 0C25.6698 0 13.4057 5.10389 4.18066 13.4674C3.94357 15.1187 3.87891 16.9844 4.28843 18.6142C5.25835 22.5601 11.8754 33.1968 17.2638 38.7939C19.0528 40.6596 18.5786 43.7477 16.2939 44.9486C16.2508 44.97 16.2292 44.9915 16.1861 45.0129C13.9445 46.1495 11.6167 47.329 10.1726 48.0581C10.4097 48.4441 11.94 50.7387 14.0523 52.0254C15.7766 53.0548 16.0999 55.4137 14.742 56.872L12.0047 59.8314L12.0693 59.8528C13.4919 60.5176 15.3671 60.925 16.1215 62.8551C16.337 63.4127 16.4663 64.0775 16.4663 64.9138C16.4663 65.6644 15.7335 66.1362 15.0438 66.6937C14.7205 66.9511 14.4187 67.2084 14.2032 67.5301C13.3626 68.7739 13.0177 70.2321 13.1686 71.6904C13.2332 72.2265 13.341 72.7412 13.535 73.2559C14.2678 75.2074 15.0222 77.8451 14.7851 80.1826C14.5911 82.1126 11.4658 83.9783 8.01723 85.4366C5.34457 86.5732 2.43481 86.5089 -0.0654297 85.458C8.51297 95.2584 20.7555 101.821 34.5499 103C35.369 100.019 35.6707 95.9446 34.5499 90.4762C33.6016 88.1387 33.386 85.5653 33.2567 83.4208C33.0627 79.6465 31.8773 75.7435 30.1745 72.3552L27.5449 68.538C27.2216 67.7231 27.5881 66.7795 28.4071 66.4149C34.3128 63.8416 37.0502 71.6475 37.0502 71.6475C37.0502 71.6475 37.8692 73.6848 40.4125 76.4941C42.9343 79.3034 40.9083 78.6171 44.012 79.2819C47.6115 80.0539 51.3188 74.1351 51.3188 74.1351C47.0296 71.0685 44.3569 67.4872 44.3569 67.4872C37.0933 66.1576 32.5239 64.9781 32.8041 61.8043C33.0843 58.6304 34.6146 59.0379 41.404 59.1666C44.5509 59.2309 46.3614 59.6384 47.396 60.0672C46.0596 59.0808 44.8742 58.1587 44.8742 58.1587C44.8742 58.1587 39.8953 57.5796 39.9815 53.7839C40.0461 49.9667 43.5809 50.1168 43.5809 50.1168L48.7107 51.9396L52.1593 53.8697C50.5859 50.031 48.603 46.6427 53.2586 45.3775C53.2586 45.3775 54.9613 45.3346 56.6425 48.2511C58.7548 51.9182 63.6691 57.837 64.251 61.0966C64.833 64.3562 65.1994 71.5832 66.9668 75.8078L66.9237 75.7864C67.247 80.6973 66.6004 81.0833 63.2595 85.6082C61.7292 87.6883 60.8886 90.5191 58.9703 92.8565C58.5608 94.5721 57.9573 97.0812 57.3322 99.869C76.9462 92.5134 90.8915 73.6633 90.8915 51.5751C90.9992 23.0962 67.7643 0 39.1193 0ZM28.7088 22.3027C25.6698 23.4179 22.566 22.0025 21.4237 18.893C20.2598 15.762 21.7039 12.674 24.743 11.5803C27.3725 10.6152 29.571 11.5803 30.8211 13.1672L29.2477 14.5826C28.3209 13.3387 26.9845 12.8241 25.368 13.4031C23.4497 14.1108 22.5876 16.0408 23.3635 18.1853C24.1395 20.3083 26.0793 21.2305 28.0191 20.5228C29.6357 19.9223 30.2823 18.7 30.1961 17.1345L32.3083 17.1988C32.373 19.2361 31.3169 21.3377 28.7088 22.3027ZM61.9663 16.8128C62.3543 16.2553 63.0871 16.148 63.6259 16.5126C64.1648 16.8772 64.3157 17.6063 63.9061 18.1853C63.6906 18.4855 63.4104 18.7429 62.9362 19.0217L61.1904 20.0296L60.242 19.3862L62.1172 18.2925C61.7077 17.8851 61.5999 17.3489 61.9663 16.8128ZM39.8521 20.2869L39.6797 15.4403C39.6366 14.2394 38.8607 13.5532 37.6968 13.5961C36.5975 13.6604 35.8 14.4539 35.8216 15.3975L36.0156 20.437L33.9895 20.5228L33.5369 8.89965L35.5629 8.81387L35.7138 12.8455C36.2742 12.2451 37.1364 11.7947 38.2141 11.7733C40.2832 11.6875 41.6196 12.9956 41.7058 14.99L41.8998 20.2226L39.8521 20.2869ZM51.6421 18.8286L45.3052 17.2632C45.2621 18.5499 46.0381 19.5149 47.2666 19.8151C48.3874 20.0939 49.0772 19.8151 49.6376 19.1718L50.9523 20.5442C50.0902 21.402 48.797 21.9596 46.814 21.4664C44.206 20.823 42.9559 18.5713 43.5594 16.148C44.1413 13.7891 46.4692 12.3308 48.797 12.9098C51.3834 13.5318 52.4395 15.9336 51.9223 18.0137C51.8145 18.3569 51.7283 18.6571 51.6421 18.8286ZM53.7974 23.9325L51.9869 23.0319L54.9613 17.0916L53.7328 16.4912L54.5087 14.9471L55.7373 15.5476L55.7804 15.4403C56.7072 13.5961 58.3237 12.9956 60.3067 13.9821L60.8455 14.2394L60.1342 15.6548L59.6816 15.4189C58.841 15.0115 58.1297 15.2902 57.6987 16.148L57.5478 16.4268L59.2721 17.2846L58.4962 18.8286L56.7719 17.9709L53.7974 23.9325ZM64.2295 28.6719C63.1087 29.9157 61.4275 29.7441 59.854 28.3502C58.4962 27.1493 57.9789 25.7339 58.5824 24.3614L60.3713 25.0262C60.0265 25.7768 60.2205 26.5488 60.9748 27.2136C61.5783 27.7497 62.1818 27.8355 62.5914 27.4066C63.6906 26.1628 59.7247 23.6966 61.643 21.5307C62.656 20.3941 64.251 20.5228 65.7382 21.8309C66.9668 22.9032 67.3979 24.1899 66.9021 25.2836L65.1132 24.6188C65.3718 23.9969 65.1994 23.4393 64.6821 22.9675C64.1217 22.4743 63.6044 22.4528 63.2595 22.8174C62.225 23.9754 66.2771 26.3773 64.2295 28.6719ZM66.0184 35.3412L65.0701 33.5399L74.8986 28.3716L75.8469 30.173L71.5146 32.4462L77.9377 34.076L79.0369 36.1562L72.075 34.462L69.3377 41.5603L68.2385 39.4801L70.6525 32.8965L66.0184 35.3412ZM69.079 42.0964L77.1833 39.8018L77.7437 41.7533L69.6395 44.0479L69.079 42.0964ZM78.8429 56.5932C78.6489 58.2015 77.8299 59.2952 76.6444 59.4882L76.1702 57.644C76.8384 57.4939 77.2048 57.0435 77.291 56.3573C77.3773 55.6067 77.1186 55.1778 76.6013 55.1135C75.071 54.9205 75.3727 59.5955 72.3121 59.2095C70.6525 58.995 69.8334 57.5367 70.0921 55.4351C70.3076 53.6338 71.2129 52.4114 72.6785 52.1326L73.1527 53.9769C72.3552 54.127 71.7948 54.706 71.6871 55.7139C71.5793 56.5288 71.8595 57.065 72.4414 57.1293C74.1011 57.3223 73.9071 52.6688 76.7738 53.0333C78.3041 53.2478 79.08 54.6202 78.8429 56.5932ZM77.4635 50.803L76.6013 49.1089C77.2048 48.8301 77.4635 48.294 77.3988 47.6077C77.3126 46.8572 76.9677 46.4926 76.4504 46.5569C74.9201 46.7071 76.278 51.189 73.2174 51.5107C71.5577 51.6823 70.4154 50.417 70.1999 48.3369C70.0059 46.5355 70.6094 45.1416 71.9673 44.5411L72.8294 46.2353C72.075 46.5569 71.6871 47.2432 71.7948 48.2725C71.881 49.0874 72.269 49.5592 72.851 49.4949C74.5106 49.3233 73.2605 44.8413 76.1487 44.5411C77.679 44.391 78.7567 45.549 78.9722 47.5005C79.1231 49.1089 78.5627 50.3312 77.4635 50.803ZM80.4163 41.3887C79.6619 41.6032 78.9507 41.1743 78.7351 40.4237C78.5196 39.6731 78.886 38.944 79.6404 38.7295C80.3948 38.5151 81.1276 38.944 81.3431 39.6946C81.5802 40.4237 81.1707 41.1743 80.4163 41.3887Z" fill="#F4EEE1"/>
</svg>
